<svg xmlns:xlink="http://www.w3.org/1999/xlink" xmlns="http://www.w3.org/2000/svg" width="38" height="31" viewBox="0 0 38 31" fill="none">
<mask id="mask0_562_2038" style="mask-type:alpha" maskUnits="userSpaceOnUse" x="0" y="7" width="24" height="24">
<rect y="7" width="24" height="24" fill="#D9D9D9"/>
</mask>
<g mask="url(#mask0_562_2038)">
<path d="M7 29C6.45 29 5.97917 28.8042 5.5875 28.4125C5.19583 28.0208 5 27.55 5 27C5 26.45 5.19583 25.9792 5.5875 25.5875C5.97917 25.1958 6.45 25 7 25C7.55 25 8.02083 25.1958 8.4125 25.5875C8.80417 25.9792 9 26.45 9 27C9 27.55 8.80417 28.0208 8.4125 28.4125C8.02083 28.8042 7.55 29 7 29ZM17 29C16.45 29 15.9792 28.8042 15.5875 28.4125C15.1958 28.0208 15 27.55 15 27C15 26.45 15.1958 25.9792 15.5875 25.5875C15.9792 25.1958 16.45 25 17 25C17.55 25 18.0208 25.1958 18.4125 25.5875C18.8042 25.9792 19 26.45 19 27C19 27.55 18.8042 28.0208 18.4125 28.4125C18.0208 28.8042 17.55 29 17 29ZM6.15 13L8.55 18H15.55L18.3 13H6.15ZM5.2 11H19.95C20.3333 11 20.625 11.1708 20.825 11.5125C21.025 11.8542 21.0333 12.2 20.85 12.55L17.3 18.95C17.1167 19.2833 16.8708 19.5417 16.5625 19.725C16.2542 19.9083 15.9167 20 15.55 20H8.1L7 22H18C18.2833 22 18.5208 22.0958 18.7125 22.2875C18.9042 22.4792 19 22.7167 19 23C19 23.2833 18.9042 23.5208 18.7125 23.7125C18.5208 23.9042 18.2833 24 18 24H7C6.25 24 5.68333 23.6708 5.3 23.0125C4.91667 22.3542 4.9 21.7 5.25 21.05L6.6 18.6L3 11H2C1.71667 11 1.47917 10.9042 1.2875 10.7125C1.09583 10.5208 1 10.2833 1 10C1 9.71667 1.09583 9.47917 1.2875 9.2875C1.47917 9.09583 1.71667 9 2 9H3.625C3.80833 9 3.98333 9.05 4.15 9.15C4.31667 9.25 4.44167 9.39167 4.525 9.575L5.2 11Z" fill="black"/>
</g>
<path d="M15 8C15 3.58172 18.5817 0 23 0H30C34.4183 0 38 3.58172 38 8C38 12.4183 34.4183 16 30 16H23C18.5817 16 15 12.4183 15 8Z" fill="black"/>
<path d="M22.5768 5.832C22.5688 5.552 22.5408 5.348 22.4928 5.22C22.4448 5.092 22.3608 5.024 22.2408 5.016C22.2248 5.024 22.1768 5.032 22.0968 5.04C22.0248 5.04 21.9608 5.044 21.9048 5.052C21.8408 5.06 21.7768 5.068 21.7128 5.076C21.6488 5.076 21.5968 5.076 21.5568 5.076C21.1248 5.076 20.9088 4.888 20.9088 4.512C20.9088 4.136 21.1168 3.948 21.5328 3.948C21.5728 3.948 21.6328 3.952 21.7128 3.96C21.8008 3.96 21.8888 3.968 21.9768 3.984C22.0008 3.984 22.0208 3.988 22.0368 3.996C22.0528 3.996 22.0688 3.996 22.0848 3.996C22.1488 4.004 22.2088 4.008 22.2648 4.008C22.3288 4.008 22.3808 4.008 22.4208 4.008C22.5408 4.008 22.6488 4.008 22.7448 4.008C22.8408 4 22.9288 3.992 23.0088 3.984H22.9967C23.2448 3.96 23.4008 3.948 23.4648 3.948C23.5928 3.948 23.6968 3.972 23.7768 4.02C23.8568 4.068 23.9168 4.132 23.9568 4.212C23.9968 4.332 24.0168 4.468 24.0168 4.62C24.0168 4.636 24.0168 4.672 24.0168 4.728C24.0168 4.784 24.0128 4.844 24.0048 4.908C23.9888 5.3 23.9728 5.688 23.9568 6.072C23.9488 6.448 23.9448 6.8 23.9448 7.128V8.424C23.9448 8.552 23.9448 8.692 23.9448 8.844C23.9448 8.996 23.9488 9.176 23.9568 9.384C23.9568 9.48 23.9568 9.568 23.9568 9.648C23.9648 9.728 23.9688 9.8 23.9688 9.864C23.9768 9.96 23.9808 10.056 23.9808 10.152C23.9808 10.24 23.9808 10.304 23.9808 10.344C23.9968 10.768 24.1088 10.98 24.3168 10.98C24.3568 10.98 24.4088 10.98 24.4728 10.98C24.5368 10.972 24.6088 10.964 24.6888 10.956C24.7608 10.948 24.8328 10.94 24.9048 10.932C24.9768 10.924 25.0328 10.92 25.0728 10.92C25.5768 10.92 25.8288 11.108 25.8288 11.484C25.8288 11.86 25.5928 12.048 25.1208 12.048C25.0488 12.048 24.9808 12.044 24.9168 12.036C24.8528 12.036 24.7888 12.032 24.7248 12.024C24.4048 11.984 24.1248 11.952 23.8848 11.928C23.6448 11.904 23.4448 11.892 23.2848 11.892C22.9568 11.892 22.5488 11.928 22.0608 12C21.9248 12.016 21.8048 12.028 21.7008 12.036C21.5968 12.052 21.5128 12.06 21.4488 12.06C20.9848 12.06 20.7528 11.868 20.7528 11.484C20.7528 11.108 21.0088 10.92 21.5208 10.92C21.5848 10.92 21.6488 10.924 21.7128 10.932C21.7848 10.932 21.8488 10.94 21.9048 10.956C21.9368 10.956 21.9688 10.96 22.0008 10.968C22.0328 10.968 22.0608 10.968 22.0848 10.968C22.1168 10.968 22.1408 10.972 22.1568 10.98C22.1808 10.98 22.2008 10.98 22.2168 10.98C22.3688 10.98 22.4728 10.912 22.5288 10.776C22.5528 10.672 22.5728 10.488 22.5888 10.224C22.6048 9.96 22.6128 9.612 22.6128 9.18L22.5768 5.832ZM31.3746 8.532H32.5386C32.9226 8.532 33.1146 8.716 33.1146 9.084C33.1146 9.452 32.9146 9.636 32.5146 9.636H31.3746V10.176C31.3746 10.712 31.4826 10.98 31.6986 10.98C31.7306 10.98 31.7666 10.98 31.8066 10.98C31.8466 10.98 31.8946 10.976 31.9506 10.968C31.9666 10.968 31.9866 10.968 32.0106 10.968C32.0346 10.96 32.0546 10.956 32.0706 10.956C32.1106 10.956 32.1426 10.956 32.1666 10.956C32.1986 10.948 32.2226 10.944 32.2386 10.944C32.2626 10.944 32.2826 10.94 32.2986 10.932C32.7706 10.932 33.0066 11.116 33.0066 11.484C33.0066 11.86 32.8026 12.048 32.3946 12.048C32.1866 12.048 31.9466 12.024 31.6746 11.976H31.6866C31.5666 11.96 31.4346 11.948 31.2906 11.94C31.1546 11.924 30.9986 11.916 30.8226 11.916C30.6146 11.916 30.3026 11.94 29.8866 11.988C29.4546 12.036 29.1226 12.06 28.8906 12.06C28.4666 12.06 28.2546 11.876 28.2546 11.508C28.2546 11.124 28.4986 10.932 28.9866 10.932C29.0266 10.932 29.0746 10.936 29.1306 10.944C29.1946 10.944 29.2586 10.948 29.3226 10.956C29.3866 10.964 29.4506 10.972 29.5146 10.98C29.5786 10.98 29.6266 10.98 29.6586 10.98C29.9146 10.98 30.0426 10.712 30.0426 10.176V9.636H26.6706C26.1826 9.636 25.9386 9.428 25.9386 9.012C25.9386 8.876 25.9906 8.728 26.0946 8.568L29.1666 4.752C29.3266 4.568 29.4666 4.408 29.5866 4.272C29.7146 4.128 29.8226 4.024 29.9106 3.96H29.8986C30.0666 3.816 30.2866 3.744 30.5586 3.744C31.1026 3.744 31.3746 4.068 31.3746 4.716V8.532ZM27.6066 8.532H30.0426C30.0506 8.244 30.0586 7.98 30.0666 7.74C30.0746 7.492 30.0786 7.252 30.0786 7.02C30.0866 6.78 30.0946 6.536 30.1026 6.288C30.1106 6.04 30.1186 5.764 30.1266 5.46L27.6066 8.532Z" fill="white"/>
</svg>