<svg xmlns:xlink="http://www.w3.org/1999/xlink" xmlns="http://www.w3.org/2000/svg" width="24" height="24" viewBox="0 0 24 24" fill="none">
<mask id="mask0_3_4769" style="mask-type:alpha" maskUnits="userSpaceOnUse" x="0" y="0" width="24" height="25">
<mask id="mask1_3_4769" style="mask-type:alpha" maskUnits="userSpaceOnUse" x="0" y="0" width="24" height="25">
<rect y="0.000610352" width="24" height="24" fill="#D9D9D9"/>
</mask>
<g mask="url(#mask1_3_4769)">
<path d="M11 13.0006H6C5.71667 13.0006 5.47917 12.9048 5.2875 12.7131C5.09583 12.5214 5 12.2839 5 12.0006C5 11.7173 5.09583 11.4798 5.2875 11.2881C5.47917 11.0964 5.71667 11.0006 6 11.0006H11V6.00061C11 5.71728 11.0958 5.47978 11.2875 5.28811C11.4792 5.09644 11.7167 5.00061 12 5.00061C12.2833 5.00061 12.5208 5.09644 12.7125 5.28811C12.9042 5.47978 13 5.71728 13 6.00061V11.0006H18C18.2833 11.0006 18.5208 11.0964 18.7125 11.2881C18.9042 11.4798 19 11.7173 19 12.0006C19 12.2839 18.9042 12.5214 18.7125 12.7131C18.5208 12.9048 18.2833 13.0006 18 13.0006H13V18.0006C13 18.2839 12.9042 18.5214 12.7125 18.7131C12.5208 18.9048 12.2833 19.0006 12 19.0006C11.7167 19.0006 11.4792 18.9048 11.2875 18.7131C11.0958 18.5214 11 18.2839 11 18.0006V13.0006Z" fill="#1C1B1F"/>
</g>
</mask>
<g mask="url(#mask0_3_4769)">
<rect y="0.000610352" width="24" height="24" fill="black"/>
</g>
</svg>