<svg xmlns:xlink="http://www.w3.org/1999/xlink" xmlns="http://www.w3.org/2000/svg" width="92" height="20" viewBox="0 0 92 20" fill="none">
<mask id="mask0_539_2946" style="mask-type:alpha" maskUnits="userSpaceOnUse" x="0" y="0" width="20" height="20">
<rect width="20" height="20" fill="#D9D9D9"/>
</mask>
<g mask="url(#mask0_539_2946)">
<path d="M9.99997 15.2292L6.54164 17.3125C6.38886 17.4097 6.22914 17.4514 6.06247 17.4375C5.8958 17.4236 5.74997 17.3681 5.62497 17.2708C5.49997 17.1736 5.40275 17.0521 5.33331 16.9062C5.26386 16.7604 5.24997 16.5972 5.29164 16.4167L6.20831 12.4792L3.14581 9.83333C3.00692 9.70833 2.92011 9.56597 2.88539 9.40625C2.85067 9.24653 2.86108 9.09028 2.91664 8.9375C2.97219 8.78472 3.05553 8.65972 3.16664 8.5625C3.27775 8.46528 3.43053 8.40278 3.62497 8.375L7.66664 8.02083L9.22914 4.3125C9.29858 4.14583 9.40622 4.02083 9.55206 3.9375C9.69789 3.85417 9.84719 3.8125 9.99997 3.8125C10.1527 3.8125 10.3021 3.85417 10.4479 3.9375C10.5937 4.02083 10.7014 4.14583 10.7708 4.3125L12.3333 8.02083L16.375 8.375C16.5694 8.40278 16.7222 8.46528 16.8333 8.5625C16.9444 8.65972 17.0277 8.78472 17.0833 8.9375C17.1389 9.09028 17.1493 9.24653 17.1146 9.40625C17.0798 9.56597 16.993 9.70833 16.8541 9.83333L13.7916 12.4792L14.7083 16.4167C14.75 16.5972 14.7361 16.7604 14.6666 16.9062C14.5972 17.0521 14.5 17.1736 14.375 17.2708C14.25 17.3681 14.1041 17.4236 13.9375 17.4375C13.7708 17.4514 13.6111 17.4097 13.4583 17.3125L9.99997 15.2292Z" fill="#FACC15"/>
</g>
<mask id="mask1_539_2946" style="mask-type:alpha" maskUnits="userSpaceOnUse" x="18" y="0" width="20" height="20">
<rect x="18" width="20" height="20" fill="#D9D9D9"/>
</mask>
<g mask="url(#mask1_539_2946)">
<path d="M28 15.2292L24.5416 17.3125C24.3889 17.4097 24.2291 17.4514 24.0625 17.4375C23.8958 17.4236 23.75 17.3681 23.625 17.2708C23.5 17.1736 23.4027 17.0521 23.3333 16.9062C23.2639 16.7604 23.25 16.5972 23.2916 16.4167L24.2083 12.4792L21.1458 9.83333C21.0069 9.70833 20.9201 9.56597 20.8854 9.40625C20.8507 9.24653 20.8611 9.09028 20.9166 8.9375C20.9722 8.78472 21.0555 8.65972 21.1666 8.5625C21.2777 8.46528 21.4305 8.40278 21.625 8.375L25.6666 8.02083L27.2291 4.3125C27.2986 4.14583 27.4062 4.02083 27.5521 3.9375C27.6979 3.85417 27.8472 3.8125 28 3.8125C28.1527 3.8125 28.3021 3.85417 28.4479 3.9375C28.5937 4.02083 28.7014 4.14583 28.7708 4.3125L30.3333 8.02083L34.375 8.375C34.5694 8.40278 34.7222 8.46528 34.8333 8.5625C34.9444 8.65972 35.0277 8.78472 35.0833 8.9375C35.1389 9.09028 35.1493 9.24653 35.1146 9.40625C35.0798 9.56597 34.993 9.70833 34.8541 9.83333L31.7916 12.4792L32.7083 16.4167C32.75 16.5972 32.7361 16.7604 32.6666 16.9062C32.5972 17.0521 32.5 17.1736 32.375 17.2708C32.25 17.3681 32.1041 17.4236 31.9375 17.4375C31.7708 17.4514 31.6111 17.4097 31.4583 17.3125L28 15.2292Z" fill="#FACC15"/>
</g>
<mask id="mask2_539_2946" style="mask-type:alpha" maskUnits="userSpaceOnUse" x="36" y="0" width="20" height="20">
<rect x="36" width="20" height="20" fill="#D9D9D9"/>
</mask>
<g mask="url(#mask2_539_2946)">
<path d="M46 15.2292L42.5416 17.3125C42.3889 17.4097 42.2291 17.4514 42.0625 17.4375C41.8958 17.4236 41.75 17.3681 41.625 17.2708C41.5 17.1736 41.4027 17.0521 41.3333 16.9062C41.2639 16.7604 41.25 16.5972 41.2916 16.4167L42.2083 12.4792L39.1458 9.83333C39.0069 9.70833 38.9201 9.56597 38.8854 9.40625C38.8507 9.24653 38.8611 9.09028 38.9166 8.9375C38.9722 8.78472 39.0555 8.65972 39.1666 8.5625C39.2777 8.46528 39.4305 8.40278 39.625 8.375L43.6666 8.02083L45.2291 4.3125C45.2986 4.14583 45.4062 4.02083 45.5521 3.9375C45.6979 3.85417 45.8472 3.8125 46 3.8125C46.1527 3.8125 46.3021 3.85417 46.4479 3.9375C46.5937 4.02083 46.7014 4.14583 46.7708 4.3125L48.3333 8.02083L52.375 8.375C52.5694 8.40278 52.7222 8.46528 52.8333 8.5625C52.9444 8.65972 53.0277 8.78472 53.0833 8.9375C53.1389 9.09028 53.1493 9.24653 53.1146 9.40625C53.0798 9.56597 52.993 9.70833 52.8541 9.83333L49.7916 12.4792L50.7083 16.4167C50.75 16.5972 50.7361 16.7604 50.6666 16.9062C50.5972 17.0521 50.5 17.1736 50.375 17.2708C50.25 17.3681 50.1041 17.4236 49.9375 17.4375C49.7708 17.4514 49.6111 17.4097 49.4583 17.3125L46 15.2292Z" fill="#FACC15"/>
</g>
<mask id="mask3_539_2946" style="mask-type:alpha" maskUnits="userSpaceOnUse" x="54" y="0" width="20" height="20">
<rect x="54" width="20" height="20" fill="#D9D9D9"/>
</mask>
<g mask="url(#mask3_539_2946)">
<path d="M64 15.2292L60.5416 17.3125C60.3889 17.4097 60.2291 17.4514 60.0625 17.4375C59.8958 17.4236 59.75 17.3681 59.625 17.2708C59.5 17.1736 59.4027 17.0521 59.3333 16.9062C59.2639 16.7604 59.25 16.5972 59.2916 16.4167L60.2083 12.4792L57.1458 9.83333C57.0069 9.70833 56.9201 9.56597 56.8854 9.40625C56.8507 9.24653 56.8611 9.09028 56.9166 8.9375C56.9722 8.78472 57.0555 8.65972 57.1666 8.5625C57.2777 8.46528 57.4305 8.40278 57.625 8.375L61.6666 8.02083L63.2291 4.3125C63.2986 4.14583 63.4062 4.02083 63.5521 3.9375C63.6979 3.85417 63.8472 3.8125 64 3.8125C64.1527 3.8125 64.3021 3.85417 64.4479 3.9375C64.5937 4.02083 64.7014 4.14583 64.7708 4.3125L66.3333 8.02083L70.375 8.375C70.5694 8.40278 70.7222 8.46528 70.8333 8.5625C70.9444 8.65972 71.0277 8.78472 71.0833 8.9375C71.1389 9.09028 71.1493 9.24653 71.1146 9.40625C71.0798 9.56597 70.993 9.70833 70.8541 9.83333L67.7916 12.4792L68.7083 16.4167C68.75 16.5972 68.7361 16.7604 68.6666 16.9062C68.5972 17.0521 68.5 17.1736 68.375 17.2708C68.25 17.3681 68.1041 17.4236 67.9375 17.4375C67.7708 17.4514 67.6111 17.4097 67.4583 17.3125L64 15.2292Z" fill="#FACC15"/>
</g>
<mask id="mask4_539_2946" style="mask-type:alpha" maskUnits="userSpaceOnUse" x="72" y="0" width="20" height="20">
<mask id="mask5_539_2946" style="mask-type:alpha" maskUnits="userSpaceOnUse" x="72" y="0" width="20" height="20">
<rect x="72" width="20" height="20" fill="#D9D9D9"/>
</mask>
<g mask="url(#mask5_539_2946)">
<path d="M82 15.2292L78.5416 17.3125C78.3889 17.4097 78.2291 17.4514 78.0625 17.4375C77.8958 17.4236 77.75 17.3681 77.625 17.2708C77.5 17.1736 77.4027 17.0521 77.3333 16.9062C77.2639 16.7604 77.25 16.5972 77.2916 16.4167L78.2083 12.4792L75.1458 9.83333C75.0069 9.70833 74.9201 9.56597 74.8854 9.40625C74.8507 9.24653 74.8611 9.09028 74.9166 8.9375C74.9722 8.78472 75.0555 8.65972 75.1666 8.5625C75.2777 8.46528 75.4305 8.40278 75.625 8.375L79.6666 8.02083L81.2291 4.3125C81.2986 4.14583 81.4062 4.02083 81.5521 3.9375C81.6979 3.85417 81.8472 3.8125 82 3.8125C82.1527 3.8125 82.3021 3.85417 82.4479 3.9375C82.5937 4.02083 82.7014 4.14583 82.7708 4.3125L84.3333 8.02083L88.375 8.375C88.5694 8.40278 88.7222 8.46528 88.8333 8.5625C88.9444 8.65972 89.0277 8.78472 89.0833 8.9375C89.1389 9.09028 89.1493 9.24653 89.1146 9.40625C89.0798 9.56597 88.993 9.70833 88.8541 9.83333L85.7916 12.4792L86.7083 16.4167C86.75 16.5972 86.7361 16.7604 86.6666 16.9062C86.5972 17.0521 86.5 17.1736 86.375 17.2708C86.25 17.3681 86.1041 17.4236 85.9375 17.4375C85.7708 17.4514 85.6111 17.4097 85.4583 17.3125L82 15.2292Z" fill="#1C1B1F"/>
</g>
</mask>
<g mask="url(#mask4_539_2946)">
<rect x="82" width="10" height="20" fill="#E5E7EB"/>
<rect x="72" width="10" height="20" fill="#FACC15"/>
</g>
</svg>